<svg width="1000" height="700" viewBox="0 0 1000 700" fill="none" xmlns="http://www.w3.org/2000/svg">
<path d="M142.13 511.936H120.226L116.156 522H101.208L124.074 470.2H138.504L161.444 522H146.2L142.13 511.936ZM137.838 501.132L131.178 484.556L124.518 501.132H137.838ZM229.216 481.892L214.934 522H201.318L193.77 500.17L185.926 522H172.31L158.028 481.892H171.348L179.562 506.164L188.072 481.892H200.06L208.348 506.386L216.858 481.892H229.216ZM273.424 502.02C273.424 502.119 273.35 503.278 273.202 505.498H244.046C244.638 507.57 245.773 509.173 247.45 510.308C249.177 511.393 251.323 511.936 253.888 511.936C255.812 511.936 257.465 511.665 258.846 511.122C260.277 510.579 261.707 509.691 263.138 508.458L270.538 516.154C266.641 520.495 260.943 522.666 253.444 522.666C248.757 522.666 244.638 521.778 241.086 520.002C237.534 518.226 234.771 515.759 232.798 512.602C230.874 509.445 229.912 505.868 229.912 501.872C229.912 497.925 230.849 494.398 232.724 491.29C234.648 488.133 237.287 485.666 240.642 483.89C243.997 482.114 247.771 481.226 251.964 481.226C255.96 481.226 259.586 482.065 262.842 483.742C266.098 485.37 268.663 487.763 270.538 490.92C272.462 494.028 273.424 497.728 273.424 502.02ZM252.038 491.216C249.867 491.216 248.042 491.833 246.562 493.066C245.131 494.299 244.219 495.977 243.824 498.098H260.252C259.857 495.977 258.92 494.299 257.44 493.066C256.009 491.833 254.209 491.216 252.038 491.216ZM294.485 522.666C291.13 522.666 287.825 522.296 284.569 521.556C281.313 520.767 278.698 519.755 276.725 518.522L280.943 508.902C282.768 510.037 284.939 510.949 287.455 511.64C289.971 512.281 292.462 512.602 294.929 512.602C297.198 512.602 298.801 512.38 299.739 511.936C300.725 511.443 301.219 510.752 301.219 509.864C301.219 508.976 300.627 508.359 299.443 508.014C298.308 507.619 296.483 507.249 293.967 506.904C290.76 506.509 288.022 505.991 285.753 505.35C283.533 504.709 281.609 503.525 279.981 501.798C278.353 500.071 277.539 497.654 277.539 494.546C277.539 491.981 278.303 489.711 279.833 487.738C281.362 485.715 283.582 484.137 286.493 483.002C289.453 481.818 292.98 481.226 297.075 481.226C299.985 481.226 302.871 481.522 305.733 482.114C308.594 482.706 310.987 483.545 312.911 484.63L308.693 494.176C305.141 492.203 301.293 491.216 297.149 491.216C294.929 491.216 293.301 491.487 292.265 492.03C291.229 492.523 290.711 493.189 290.711 494.028C290.711 494.965 291.278 495.631 292.413 496.026C293.547 496.371 295.422 496.741 298.037 497.136C301.342 497.629 304.08 498.197 306.251 498.838C308.421 499.479 310.296 500.663 311.875 502.39C313.503 504.067 314.317 506.435 314.317 509.494C314.317 512.01 313.552 514.279 312.023 516.302C310.493 518.275 308.224 519.829 305.215 520.964C302.255 522.099 298.678 522.666 294.485 522.666ZM340.503 522.666C336.211 522.666 332.339 521.778 328.885 520.002C325.432 518.226 322.719 515.759 320.745 512.602C318.821 509.445 317.859 505.868 317.859 501.872C317.859 497.925 318.821 494.373 320.745 491.216C322.719 488.059 325.407 485.617 328.811 483.89C332.265 482.114 336.162 481.226 340.503 481.226C344.845 481.226 348.742 482.114 352.195 483.89C355.649 485.617 358.337 488.059 360.261 491.216C362.185 494.324 363.147 497.876 363.147 501.872C363.147 505.868 362.185 509.445 360.261 512.602C358.337 515.759 355.649 518.226 352.195 520.002C348.742 521.778 344.845 522.666 340.503 522.666ZM340.503 511.492C342.97 511.492 344.993 510.653 346.571 508.976C348.15 507.249 348.939 504.881 348.939 501.872C348.939 498.912 348.15 496.593 346.571 494.916C344.993 493.239 342.97 492.4 340.503 492.4C338.037 492.4 336.014 493.239 334.435 494.916C332.857 496.593 332.067 498.912 332.067 501.872C332.067 504.881 332.857 507.249 334.435 508.976C336.014 510.653 338.037 511.492 340.503 511.492ZM421.904 481.226C426.838 481.226 430.76 482.706 433.67 485.666C436.63 488.626 438.11 493.091 438.11 499.06V522H424.05V501.354C424.05 498.542 423.508 496.47 422.422 495.138C421.386 493.806 419.906 493.14 417.982 493.14C415.861 493.14 414.159 493.88 412.876 495.36C411.594 496.84 410.952 499.085 410.952 502.094V522H396.892V501.354C396.892 495.878 394.87 493.14 390.824 493.14C388.654 493.14 386.927 493.88 385.644 495.36C384.362 496.84 383.72 499.085 383.72 502.094V522H369.66V481.892H383.054V486.11C384.534 484.482 386.286 483.273 388.308 482.484C390.38 481.645 392.625 481.226 395.042 481.226C397.854 481.226 400.37 481.744 402.59 482.78C404.81 483.816 406.611 485.395 407.992 487.516C409.571 485.493 411.569 483.939 413.986 482.854C416.404 481.769 419.043 481.226 421.904 481.226ZM488.559 502.02C488.559 502.119 488.485 503.278 488.337 505.498H459.181C459.773 507.57 460.907 509.173 462.585 510.308C464.311 511.393 466.457 511.936 469.023 511.936C470.947 511.936 472.599 511.665 473.981 511.122C475.411 510.579 476.842 509.691 478.273 508.458L485.673 516.154C481.775 520.495 476.077 522.666 468.579 522.666C463.892 522.666 459.773 521.778 456.221 520.002C452.669 518.226 449.906 515.759 447.933 512.602C446.009 509.445 445.047 505.868 445.047 501.872C445.047 497.925 445.984 494.398 447.859 491.29C449.783 488.133 452.422 485.666 455.777 483.89C459.131 482.114 462.905 481.226 467.099 481.226C471.095 481.226 474.721 482.065 477.977 483.742C481.233 485.37 483.798 487.763 485.673 490.92C487.597 494.028 488.559 497.728 488.559 502.02ZM467.173 491.216C465.002 491.216 463.177 491.833 461.697 493.066C460.266 494.299 459.353 495.977 458.959 498.098H475.387C474.992 495.977 474.055 494.299 472.575 493.066C471.144 491.833 469.343 491.216 467.173 491.216ZM551.949 511.936H530.045L525.975 522H511.026L533.893 470.2H548.323L571.263 522H556.019L551.949 511.936ZM547.657 501.132L540.997 484.556L534.337 501.132H547.657ZM599.984 481.226C603.635 481.226 606.94 482.089 609.9 483.816C612.91 485.493 615.278 487.911 617.004 491.068C618.78 494.176 619.668 497.802 619.668 501.946C619.668 506.09 618.78 509.741 617.004 512.898C615.278 516.006 612.91 518.423 609.9 520.15C606.94 521.827 603.635 522.666 599.984 522.666C595.298 522.666 591.573 521.26 588.81 518.448V536.356H574.75V481.892H588.144V485.888C590.759 482.78 594.706 481.226 599.984 481.226ZM597.024 511.492C599.491 511.492 601.514 510.653 603.092 508.976C604.671 507.249 605.46 504.906 605.46 501.946C605.46 498.986 604.671 496.667 603.092 494.99C601.514 493.263 599.491 492.4 597.024 492.4C594.558 492.4 592.535 493.263 590.956 494.99C589.378 496.667 588.588 498.986 588.588 501.946C588.588 504.906 589.378 507.249 590.956 508.976C592.535 510.653 594.558 511.492 597.024 511.492ZM651.437 481.226C655.088 481.226 658.393 482.089 661.353 483.816C664.363 485.493 666.731 487.911 668.457 491.068C670.233 494.176 671.121 497.802 671.121 501.946C671.121 506.09 670.233 509.741 668.457 512.898C666.731 516.006 664.363 518.423 661.353 520.15C658.393 521.827 655.088 522.666 651.437 522.666C646.751 522.666 643.026 521.26 640.263 518.448V536.356H626.203V481.892H639.597V485.888C642.212 482.78 646.159 481.226 651.437 481.226ZM648.477 511.492C650.944 511.492 652.967 510.653 654.545 508.976C656.124 507.249 656.913 504.906 656.913 501.946C656.913 498.986 656.124 496.667 654.545 494.99C652.967 493.263 650.944 492.4 648.477 492.4C646.011 492.4 643.988 493.263 642.409 494.99C640.831 496.667 640.041 498.986 640.041 501.946C640.041 504.906 640.831 507.249 642.409 508.976C643.988 510.653 646.011 511.492 648.477 511.492ZM692.235 522.666C688.88 522.666 685.575 522.296 682.319 521.556C679.063 520.767 676.448 519.755 674.475 518.522L678.693 508.902C680.518 510.037 682.689 510.949 685.205 511.64C687.721 512.281 690.212 512.602 692.679 512.602C694.948 512.602 696.551 512.38 697.489 511.936C698.475 511.443 698.969 510.752 698.969 509.864C698.969 508.976 698.377 508.359 697.193 508.014C696.058 507.619 694.233 507.249 691.717 506.904C688.51 506.509 685.772 505.991 683.503 505.35C681.283 504.709 679.359 503.525 677.731 501.798C676.103 500.071 675.289 497.654 675.289 494.546C675.289 491.981 676.053 489.711 677.583 487.738C679.112 485.715 681.332 484.137 684.243 483.002C687.203 481.818 690.73 481.226 694.825 481.226C697.735 481.226 700.621 481.522 703.483 482.114C706.344 482.706 708.737 483.545 710.661 484.63L706.443 494.176C702.891 492.203 699.043 491.216 694.899 491.216C692.679 491.216 691.051 491.487 690.015 492.03C688.979 492.523 688.461 493.189 688.461 494.028C688.461 494.965 689.028 495.631 690.163 496.026C691.297 496.371 693.172 496.741 695.787 497.136C699.092 497.629 701.83 498.197 704.001 498.838C706.171 499.479 708.046 500.663 709.625 502.39C711.253 504.067 712.067 506.435 712.067 509.494C712.067 512.01 711.302 514.279 709.773 516.302C708.243 518.275 705.974 519.829 702.965 520.964C700.005 522.099 696.428 522.666 692.235 522.666ZM770.369 481.226C775.303 481.226 779.225 482.706 782.135 485.666C785.095 488.626 786.575 493.091 786.575 499.06V522H772.515V501.354C772.515 498.542 771.973 496.47 770.887 495.138C769.851 493.806 768.371 493.14 766.447 493.14C764.326 493.14 762.624 493.88 761.341 495.36C760.059 496.84 759.417 499.085 759.417 502.094V522H745.357V501.354C745.357 495.878 743.335 493.14 739.289 493.14C737.119 493.14 735.392 493.88 734.109 495.36C732.827 496.84 732.185 499.085 732.185 502.094V522H718.125V481.892H731.519V486.11C732.999 484.482 734.751 483.273 736.773 482.484C738.845 481.645 741.09 481.226 743.507 481.226C746.319 481.226 748.835 481.744 751.055 482.78C753.275 483.816 755.076 485.395 756.457 487.516C758.036 485.493 760.034 483.939 762.451 482.854C764.869 481.769 767.508 481.226 770.369 481.226ZM795.45 481.892H809.51V522H795.45V481.892ZM802.48 477.452C799.914 477.452 797.842 476.737 796.264 475.306C794.685 473.875 793.896 472.099 793.896 469.978C793.896 467.857 794.685 466.081 796.264 464.65C797.842 463.219 799.914 462.504 802.48 462.504C805.045 462.504 807.117 463.195 808.696 464.576C810.274 465.908 811.064 467.635 811.064 469.756C811.064 471.976 810.274 473.826 808.696 475.306C807.117 476.737 805.045 477.452 802.48 477.452ZM846.323 520.372C845.139 521.112 843.683 521.679 841.957 522.074C840.279 522.469 838.479 522.666 836.555 522.666C831.325 522.666 827.305 521.383 824.493 518.818C821.681 516.253 820.275 512.429 820.275 507.348V493.88H814.429V483.372H820.275V472.938H834.335V483.372H843.511V493.88H834.335V507.2C834.335 508.631 834.705 509.765 835.445 510.604C836.234 511.393 837.27 511.788 838.553 511.788C840.181 511.788 841.611 511.369 842.845 510.53L846.323 520.372ZM877.866 481.226C882.849 481.226 886.845 482.706 889.854 485.666C892.913 488.626 894.442 493.091 894.442 499.06V522H880.382V501.354C880.382 495.878 878.187 493.14 873.796 493.14C871.379 493.14 869.43 493.929 867.95 495.508C866.52 497.087 865.804 499.455 865.804 502.612V522H851.744V467.092H865.804V485.592C867.334 484.161 869.134 483.076 871.206 482.336C873.278 481.596 875.498 481.226 877.866 481.226Z" fill="#494368"/>
<path fill-rule="evenodd" clip-rule="evenodd" d="M792.5 258.1L642.5 120.5L621.4 143.5L746.4 258.1H253.7L378.7 143.4L357.6 120.4L207.6 258.1H207.5V348.8C207.5 389.8 247 423.2 295.5 423.2H388C436.5 423.2 476 389.8 476 348.8V289.2H524V348.8C524 389.8 563.5 423.2 612 423.2H704.5C753 423.2 792.5 389.8 792.5 348.8V258.1ZM373.998 300.693H292.693V381.998H373.998V300.693ZM613.693 300.693H694.998V381.998H613.693V300.693Z" fill="#FC60A8"/>
<path d="M366.855 293.555H285.551V374.859H366.855V293.555Z" fill="white"/>
<path d="M687.855 293.555H606.551V374.859H687.855V293.555Z" fill="white"/>
<path fill-rule="evenodd" clip-rule="evenodd" d="M285 293H367.403V375.403H285V293ZM287.275 295.275V373.128H365.128V295.275H287.275Z" fill="#FC60A8"/>
<path fill-rule="evenodd" clip-rule="evenodd" d="M606 293H688.403V375.403H606V293ZM608.275 295.275V373.128H686.128V295.275H608.275Z" fill="#FC60A8"/>
<path d="M317.308 343.77C316.981 343.199 316.732 342.077 316.559 340.404C314.707 343.075 311.749 344.412 307.685 344.413C304.658 344.413 302.244 343.682 300.443 342.22C298.643 340.759 297.743 338.728 297.744 336.127C297.744 331.102 301.272 328.233 308.328 327.522L312.497 327.147C313.886 326.97 314.884 326.64 315.49 326.158C316.096 325.677 316.399 324.953 316.399 323.989C316.399 322.814 316.018 321.95 315.255 321.396C314.492 320.842 313.2 320.566 311.379 320.567C309.417 320.567 308.01 320.894 307.157 321.548C306.305 322.202 305.806 323.333 305.66 324.942H299.027C299.418 318.671 303.551 315.535 311.428 315.535C319.091 315.535 322.921 318.297 322.92 323.82V338.539C322.92 340.963 323.295 342.706 324.044 343.77H317.308ZM314.421 337.865C315.74 336.706 316.399 335.039 316.399 332.866V330.355C315.758 330.924 314.707 331.298 313.246 331.476L309.611 331.905C307.829 332.123 306.555 332.541 305.789 333.16C305.023 333.779 304.641 334.679 304.645 335.859C304.645 337.036 305.045 337.954 305.846 338.612C306.647 339.271 307.797 339.598 309.294 339.593C311.395 339.599 313.104 339.023 314.421 337.865V337.865Z" fill="#FC60A8"/>
<path d="M638.308 343.77C637.981 343.199 637.732 342.077 637.559 340.404C635.707 343.075 632.749 344.412 628.685 344.413C625.658 344.413 623.244 343.682 621.443 342.22C619.643 340.759 618.743 338.728 618.744 336.127C618.744 331.102 622.272 328.233 629.328 327.522L633.497 327.147C634.886 326.97 635.884 326.64 636.49 326.158C637.096 325.677 637.399 324.953 637.399 323.989C637.399 322.814 637.018 321.95 636.255 321.396C635.492 320.842 634.2 320.566 632.379 320.567C630.417 320.567 629.01 320.894 628.157 321.548C627.305 322.202 626.806 323.333 626.66 324.942H620.027C620.418 318.671 624.551 315.535 632.428 315.535C640.091 315.535 643.921 318.297 643.92 323.82V338.539C643.92 340.963 644.295 342.706 645.044 343.77H638.308ZM635.421 337.865C636.74 336.706 637.399 335.039 637.399 332.866V330.355C636.758 330.924 635.707 331.298 634.246 331.476L630.611 331.905C628.829 332.123 627.555 332.541 626.789 333.16C626.023 333.779 625.641 334.679 625.645 335.859C625.645 337.036 626.045 337.954 626.846 338.612C627.647 339.271 628.797 339.598 630.294 339.593C632.395 339.599 634.104 339.023 635.421 337.865V337.865Z" fill="#FC60A8"/>
<path d="M328.355 352.86V347.729H354.653V352.86H328.355Z" fill="#FC60A8"/>
<path d="M649.355 352.86V347.729H675.653V352.86H649.355Z" fill="#FC60A8"/>
</svg>
